<svg width="606" height="606" viewBox="0 0 606 606" fill="none" xmlns="http://www.w3.org/2000/svg">
<rect width="606" height="606" rx="112" fill="#F8F8F8"/>
<path d="M141.296 390.111H161.593V410.407H141.296V390.111ZM161.593 390.111H181.889V410.407H161.593V390.111ZM181.889 390.111H202.185V410.407H181.889V390.111ZM181.889 410.407H202.185V430.704H181.889V410.407ZM181.889 430.704H202.185V451H181.889V430.704ZM161.593 430.704H181.889V451H161.593V430.704ZM141.296 430.704H161.593V451H141.296V430.704ZM141.296 410.407H161.593V430.704H141.296V410.407ZM161.593 410.407H181.889V430.704H161.593V410.407ZM445.939 146.556V166.852H425.643V146.556H445.939ZM445.939 166.852V187.148H425.643V166.852H445.939ZM445.939 187.148V207.444H425.643V187.148H445.939ZM445.939 207.444V227.741H425.643V207.444H445.939ZM445.939 227.741V248.037H425.643V227.741H445.939ZM445.939 248.037V268.333H425.643V248.037H445.939ZM445.939 410.407V430.704H425.643V410.407H445.939ZM445.939 430.704V451H425.643V430.704H445.939ZM425.643 430.704V451H405.346V430.704H425.643ZM405.346 146.556V166.852H385.05V146.556H405.346ZM425.643 146.556V166.852H405.346V146.556H425.643ZM425.643 166.852V187.148H405.346V166.852H425.643ZM405.346 166.852V187.148H385.05V166.852H405.346ZM405.346 187.148V207.444H385.05V187.148H405.346ZM405.346 207.444V227.741H385.05V207.444H405.346ZM425.643 227.741V248.037H405.346V227.741H425.643ZM425.643 207.444V227.741H405.346V207.444H425.643ZM425.643 187.148V207.444H405.346V187.148H425.643ZM364.754 227.741V248.037H344.457V227.741H364.754ZM344.457 227.741V248.037H324.161V227.741H344.457ZM324.161 227.741V248.037H303.865V227.741H324.161ZM303.865 227.741V248.037H283.569V227.741H303.865ZM283.569 248.037V268.333H263.272V248.037H283.569ZM303.865 248.037V268.333H283.569V248.037H303.865ZM324.161 248.037V268.333H303.865V248.037H324.161ZM344.457 248.037V268.333H324.161V248.037H344.457ZM364.754 248.037V268.333H344.457V248.037H364.754ZM385.05 248.037V268.333H364.754V248.037H385.05ZM425.643 248.037V268.333H405.346V248.037H425.643ZM405.346 369.815V390.111H385.05V369.815H405.346ZM385.05 410.407V430.704H364.754V410.407H385.05ZM385.05 390.111V410.407H364.754V390.111H385.05ZM364.754 430.704V451H344.457V430.704H364.754ZM344.457 430.704V451H324.161V430.704H344.457ZM324.161 430.704V451H303.865V430.704H324.161ZM303.865 430.704V451H283.569V430.704H303.865ZM324.161 410.407V430.704H303.865V410.407H324.161ZM344.457 410.407V430.704H324.161V410.407H344.457ZM364.754 410.407V430.704H344.457V410.407H364.754ZM303.865 410.407V430.704H283.569V410.407H303.865ZM283.569 410.407V430.704H263.272V410.407H283.569ZM303.865 390.111V410.407H283.569V390.111H303.865ZM324.161 390.111V410.407H303.865V390.111H324.161ZM283.569 390.111V410.407H263.272V390.111H283.569ZM263.272 390.111V410.407H242.976V390.111H263.272ZM263.272 369.815V390.111H242.976V369.815H263.272ZM283.569 349.519V369.815H263.272V349.519H283.569ZM283.569 369.815V390.111H263.272V369.815H283.569ZM303.865 369.815V390.111H283.569V369.815H303.865ZM263.272 349.519V369.815H242.976V349.519H263.272ZM263.272 329.222V349.519H242.976V329.222H263.272ZM283.569 329.222V349.519H263.272V329.222H283.569ZM283.569 308.926V329.222H263.272V308.926H283.569ZM283.569 288.63V308.926H263.272V288.63H283.569ZM263.272 288.63V308.926H242.976V288.63H263.272ZM263.272 268.333V288.63H242.976V268.333H263.272ZM263.272 308.926V329.222H242.976V308.926H263.272ZM303.865 329.222V349.519H283.569V329.222H303.865ZM303.865 349.519V369.815H283.569V349.519H303.865ZM303.865 308.926V329.222H283.569V308.926H303.865ZM303.865 288.63V308.926H283.569V288.63H303.865ZM303.865 268.333V288.63H283.569V268.333H303.865ZM324.161 268.333V288.63H303.865V268.333H324.161ZM283.569 268.333V288.63H263.272V268.333H283.569ZM385.05 268.333V288.63H364.754V268.333H385.05ZM364.754 268.333V288.63H344.457V268.333H364.754ZM344.457 268.333V288.63H324.161V268.333H344.457ZM364.754 390.111V410.407H344.457V390.111H364.754ZM344.457 390.111V410.407H324.161V390.111H344.457ZM405.346 430.704V451H385.05V430.704H405.346ZM405.346 410.407V430.704H385.05V410.407H405.346ZM405.346 390.111V410.407H385.05V390.111H405.346ZM425.643 390.111V410.407H405.346V390.111H425.643ZM425.643 410.407V430.704H405.346V410.407H425.643ZM425.643 369.815V390.111H405.346V369.815H425.643ZM405.346 349.519V369.815H385.05V349.519H405.346ZM405.346 329.222V349.519H385.05V329.222H405.346ZM405.346 308.926V329.222H385.05V308.926H405.346ZM405.346 288.63V308.926H385.05V288.63H405.346ZM405.346 268.333V288.63H385.05V268.333H405.346ZM405.346 248.037V268.333H385.05V248.037H405.346ZM405.346 227.741V248.037H385.05V227.741H405.346ZM425.643 268.333V288.63H405.346V268.333H425.643ZM425.643 288.63V308.926H405.346V288.63H425.643ZM425.643 308.926V329.222H405.346V308.926H425.643ZM425.643 329.222V349.519H405.346V329.222H425.643ZM425.643 349.519V369.815H405.346V349.519H425.643ZM445.939 369.815V390.111H425.643V369.815H445.939ZM445.939 390.111V410.407H425.643V390.111H445.939ZM445.939 349.519V369.815H425.643V349.519H445.939ZM445.939 329.222V349.519H425.643V329.222H445.939ZM445.939 308.926V329.222H425.643V308.926H445.939ZM445.939 288.63V308.926H425.643V288.63H445.939ZM445.939 268.333V288.63H425.643V268.333H445.939ZM364.754 369.815H385.05V390.111H364.754V369.815ZM364.754 227.741H385.05V248.037H364.754V227.741Z" fill="#09090B"/>
</svg>
